<svg id="mermaid-1613570551035" width="100%" xmlns="http://www.w3.org/2000/svg" xmlns:xlink="http://www.w3.org/1999/xlink" height="455" style="max-width: 372px;" viewBox="-20 -20 372 455"><style>#mermaid-1613570551035{font-family:"trebuchet ms",verdana,arial,sans-serif;font-size:16px;fill:#333;}#mermaid-1613570551035 .error-icon{fill:#552222;}#mermaid-1613570551035 .error-text{fill:#552222;stroke:#552222;}#mermaid-1613570551035 .edge-thickness-normal{stroke-width:2px;}#mermaid-1613570551035 .edge-thickness-thick{stroke-width:3.5px;}#mermaid-1613570551035 .edge-pattern-solid{stroke-dasharray:0;}#mermaid-1613570551035 .edge-pattern-dashed{stroke-dasharray:3;}#mermaid-1613570551035 .edge-pattern-dotted{stroke-dasharray:2;}#mermaid-1613570551035 .marker{fill:#333333;}#mermaid-1613570551035 .marker.cross{stroke:#333333;}#mermaid-1613570551035 svg{font-family:"trebuchet ms",verdana,arial,sans-serif;font-size:16px;}#mermaid-1613570551035 g.classGroup text{fill:#9370DB;fill:#131300;stroke:none;font-family:"trebuchet ms",verdana,arial,sans-serif;font-size:10px;}#mermaid-1613570551035 g.classGroup text .title{font-weight:bolder;}#mermaid-1613570551035 .classTitle{font-weight:bolder;}#mermaid-1613570551035 .node rect,#mermaid-1613570551035 .node circle,#mermaid-1613570551035 .node ellipse,#mermaid-1613570551035 .node polygon,#mermaid-1613570551035 .node path{fill:#ECECFF;stroke:#9370DB;stroke-width:1px;}#mermaid-1613570551035 .divider{stroke:#9370DB;stroke:1;}#mermaid-1613570551035 g.clickable{cursor:pointer;}#mermaid-1613570551035 g.classGroup rect{fill:#ECECFF;stroke:#9370DB;}#mermaid-1613570551035 g.classGroup line{stroke:#9370DB;stroke-width:1;}#mermaid-1613570551035 .classLabel .box{stroke:none;stroke-width:0;fill:#ECECFF;opacity:0.5;}#mermaid-1613570551035 .classLabel .label{fill:#9370DB;font-size:10px;}#mermaid-1613570551035 .relation{stroke:#333333;stroke-width:1;fill:none;}#mermaid-1613570551035 .dashed-line{stroke-dasharray:3;}#mermaid-1613570551035 #compositionStart,#mermaid-1613570551035 .composition{fill:#333333 !important;stroke:#333333 !important;stroke-width:1;}#mermaid-1613570551035 #compositionEnd,#mermaid-1613570551035 .composition{fill:#333333 !important;stroke:#333333 !important;stroke-width:1;}#mermaid-1613570551035 #dependencyStart,#mermaid-1613570551035 .dependency{fill:#333333 !important;stroke:#333333 !important;stroke-width:1;}#mermaid-1613570551035 #dependencyStart,#mermaid-1613570551035 .dependency{fill:#333333 !important;stroke:#333333 !important;stroke-width:1;}#mermaid-1613570551035 #extensionStart,#mermaid-1613570551035 .extension{fill:#333333 !important;stroke:#333333 !important;stroke-width:1;}#mermaid-1613570551035 #extensionEnd,#mermaid-1613570551035 .extension{fill:#333333 !important;stroke:#333333 !important;stroke-width:1;}#mermaid-1613570551035 #aggregationStart,#mermaid-1613570551035 .aggregation{fill:#ECECFF !important;stroke:#333333 !important;stroke-width:1;}#mermaid-1613570551035 #aggregationEnd,#mermaid-1613570551035 .aggregation{fill:#ECECFF !important;stroke:#333333 !important;stroke-width:1;}#mermaid-1613570551035 .edgeTerminals{font-size:11px;}#mermaid-1613570551035:root{--mermaid-font-family:"trebuchet ms",verdana,arial,sans-serif;}#mermaid-1613570551035 class{fill:apa;}</style><g></g><defs><marker id="extensionStart" class="extension" refX="0" refY="7" markerWidth="190" markerHeight="240" orient="auto"><path d="M 1,7 L18,13 V 1 Z"></path></marker></defs><defs><marker id="extensionEnd" refX="19" refY="7" markerWidth="20" markerHeight="28" orient="auto"><path d="M 1,1 V 13 L18,7 Z"></path></marker></defs><defs><marker id="compositionStart" class="extension" refX="0" refY="7" markerWidth="190" markerHeight="240" orient="auto"><path d="M 18,7 L9,13 L1,7 L9,1 Z"></path></marker></defs><defs><marker id="compositionEnd" refX="19" refY="7" markerWidth="20" markerHeight="28" orient="auto"><path d="M 18,7 L9,13 L1,7 L9,1 Z"></path></marker></defs><defs><marker id="aggregationStart" class="extension" refX="0" refY="7" markerWidth="190" markerHeight="240" orient="auto"><path d="M 18,7 L9,13 L1,7 L9,1 Z"></path></marker></defs><defs><marker id="aggregationEnd" refX="19" refY="7" markerWidth="20" markerHeight="28" orient="auto"><path d="M 18,7 L9,13 L1,7 L9,1 Z"></path></marker></defs><defs><marker id="dependencyStart" class="extension" refX="0" refY="7" markerWidth="190" markerHeight="240" orient="auto"><path d="M 5,7 L9,13 L1,7 L9,1 Z"></path></marker></defs><defs><marker id="dependencyEnd" refX="19" refY="7" markerWidth="20" markerHeight="28" orient="auto"><path d="M 18,7 L9,13 L14,7 L9,1 Z"></path></marker></defs><g id="classid-SPDXDocument-0" class="classGroup" transform="translate(33,0 )"><rect x="0" y="0" width="88" height="41" class=" "></rect><text y="15" x="0"><tspan class="title" x="5">SPDXDocument</tspan></text><line x1="0" y1="21" y2="21" x2="88"></line><text x="5" y="31" fill="white" class="classText"><tspan x="5">v2.2</tspan></text><line x1="0" y1="37" y2="37" x2="88"></line><text x="5" y="52" fill="white" class="classText"></text></g><g id="classid-TargetImage-1" class="classGroup" transform="translate(0,96.5 )"><rect x="0" y="0" width="154" height="41" class=" "></rect><text y="15" x="0"><tspan x="35">«SPDX Package»</tspan><tspan class="title" dy="10" x="47">TargetImage</tspan></text><line x1="0" y1="32" y2="32" x2="154"></line><text x="5" y="42" fill="white" class="classText"></text><line x1="0" y1="37" y2="37" x2="154"></line><text x="5" y="52" fill="white" class="classText"></text></g><g id="classid-SubPackage-2" class="classGroup" transform="translate(9,193 )"><rect x="0" y="0" width="156" height="41" class=" "></rect><text y="15" x="0"><tspan x="36">«SPDX Package»</tspan><tspan class="title" dy="10" x="47">SubPackage</tspan></text><line x1="0" y1="32" y2="32" x2="156"></line><text x="5" y="42" fill="white" class="classText"></text><line x1="0" y1="37" y2="37" x2="156"></line><text x="5" y="52" fill="white" class="classText"></text></g><g id="classid-Recipe-3" class="classGroup" transform="translate(204,91 )"><rect x="0" y="0" width="128" height="52" class=" "></rect><text y="15" x="0"><tspan x="22">«SPDX Package»</tspan><tspan class="title" dy="10" x="47">Recipe</tspan></text><line x1="0" y1="32" y2="32" x2="128"></line><text x="5" y="42" fill="white" class="classText"><tspan x="5">acl, bash...</tspan></text><line x1="0" y1="48" y2="48" x2="128"></line><text x="5" y="63" fill="white" class="classText"></text></g><g id="classid-SourceFile-4" class="classGroup" transform="translate(111.5,375 )"><rect x="0" y="0" width="122" height="40" class=" "></rect><text y="15" x="0"><tspan x="31.5">«SPDX File»</tspan><tspan class="title" dy="10" x="34.5">SourceFile</tspan></text><line x1="0" y1="31" y2="31" x2="122"></line><text x="5" y="41" fill="white" class="classText"></text><line x1="0" y1="36" y2="36" x2="122"></line><text x="5" y="51" fill="white" class="classText"></text></g><g id="classid-PackagedFile-5" class="classGroup" transform="translate(19,284 )"><rect x="0" y="0" width="136" height="41" class=" "></rect><text y="15" x="0"><tspan x="38.5">«SPDX File»</tspan><tspan class="title" dy="10" x="34.5">PackagedFile</tspan></text><line x1="0" y1="32" y2="32" x2="136"></line><text x="5" y="42" fill="white" class="classText"></text><line x1="0" y1="37" y2="37" x2="136"></line><text x="5" y="52" fill="white" class="classText"></text></g><path d="M77,41L77,45.166666666666664C77,49.333333333333336,77,57.666666666666664,77,66.91666666666667C77,76.16666666666667,77,86.33333333333333,77,91.41666666666667L77,96.5" id="edge0" class="relation" marker-end="url(#dependencyEnd)"></path><g class="classLabel"><rect class="box" x="45" y="57.25" width="64" height="16"></rect><text class="label" x="77" y="68.75" fill="red" text-anchor="middle">DESCRIBES</text></g><path d="M77,137.5L77,142.58333333333334C77,147.66666666666666,77,157.83333333333334,77.9157509157509,167.08333333333334C78.83150183150182,176.33333333333334,80.66300366300366,184.66666666666666,81.57875457875457,188.83333333333334L82.49450549450549,193" id="edge1" class="relation" marker-end="url(#dependencyEnd)"></path><g class="classLabel"><rect class="box" x="49" y="154.046875" width="56" height="16.015625"></rect><text class="label" x="77" y="165.54833573779374" fill="red" text-anchor="middle">CONTAINS</text></g><g class="cardinality"><text class="type2" x="89.57818750728642" y="178.6448110725841" fill="black" font-size="6">many</text></g><path d="M224.41176470588235,143L217.42647058823528,147.16666666666666C210.4411764705882,151.33333333333334,196.47058823529412,159.66666666666666,180.7398728722258,168C165.00915750915752,176.33333333333334,147.518315018315,184.66666666666666,138.77289377289378,188.83333333333334L130.02747252747253,193" id="edge2" class="relation" marker-end="url(#dependencyEnd)"></path><g class="classLabel"><rect class="box" x="144.78125" y="158.5" width="67.015625" height="16.015625"></rect><text class="label" x="178.2921222733135" y="170.00480038287157" fill="red" text-anchor="middle">GENERATES</text></g><g class="cardinality"><text class="type2" x="145.61330711538014" y="196.6512682999723" fill="black" font-size="6">many</text></g><path d="M273.0980392156863,143L273.91503267973854,147.16666666666666C274.73202614379085,151.33333333333334,276.36601307189545,159.66666666666666,277.1830065359477,171.41666666666666C278,183.16666666666666,278,198.33333333333334,278,213.5C278,228.66666666666666,278,243.83333333333334,278,259C278,274.1666666666667,278,289.3333333333333,278,304.5C278,319.6666666666667,278,334.8333333333333,268.23148148148147,346.5833333333333C258.462962962963,358.3333333333333,238.92592592592595,366.6666666666667,229.15740740740742,370.8333333333333L219.38888888888889,375" id="edge3" class="relation" marker-end="url(#dependencyEnd)"></path><g class="classLabel"><rect class="box" x="250" y="266.609375" width="56" height="16.015625"></rect><text class="label" x="278" y="278.1220680073372" fill="red" text-anchor="middle">CONTAINS</text></g><g class="cardinality"><text class="type2" x="234.81004380561973" y="379.2939470227505" fill="black" font-size="6">many</text></g><path d="M87,234L87,238.16666666666666C87,242.33333333333334,87,250.66666666666666,87,259C87,267.3333333333333,87,275.6666666666667,87,279.8333333333333L87,284" id="edge4" class="relation" marker-end="url(#dependencyEnd)"></path><g class="classLabel"><rect class="box" x="59" y="247.5" width="56" height="16"></rect><text class="label" x="87" y="259" fill="red" text-anchor="middle">CONTAINS</text></g><g class="cardinality"><text class="type2" x="97" y="271.5" fill="black" font-size="6">many</text></g><path d="M87,325L87,329.1666666666667C87,333.3333333333333,87,341.6666666666667,94.91666666666667,350C102.83333333333333,358.3333333333333,118.66666666666667,366.6666666666667,126.58333333333333,370.8333333333333L134.5,375" id="edge5" class="relation" marker-end="url(#dependencyEnd)"></path><g class="classLabel"><rect class="box" x="48.6875" y="345.171875" width="102.015625" height="16.015625"></rect><text class="label" x="99.68852222022522" y="356.67816958959224" fill="red" text-anchor="middle">GENERATED_FROM</text></g><g class="cardinality"><text class="type2" x="128.09598654855145" y="360.32898736577243" fill="black" font-size="6">many</text></g></svg>